<svg xmlns="http://www.w3.org/2000/svg" width="1200" height="300" viewBox="0 0 1200 300" role="img" aria-label="Jashanpreet Singh, Software Engineer">
  <defs>
    <pattern id="dots" width="22" height="22" patternUnits="userSpaceOnUse">
      <circle cx="2" cy="2" r="1.6" fill="#3d444d"/>
    </pattern>
    <linearGradient id="fade" x1="0" x2="1" y1="0" y2="0">
      <stop offset="0" stop-color="#fff" stop-opacity="0"/>
      <stop offset="1" stop-color="#fff" stop-opacity="1"/>
    </linearGradient>
    <mask id="fadeMask"><rect x="820" y="0" width="380" height="300" fill="url(#fade)"/></mask>
    <clipPath id="tile"><rect x="64" y="70" width="160" height="160" rx="22"/></clipPath>
  </defs>
  <rect x="1" y="1" width="1198" height="298" rx="16" fill="#0d1117" stroke="#30363d" stroke-width="2"/>
  <rect x="820" y="24" width="352" height="252" fill="url(#dots)" mask="url(#fadeMask)"/>
  <g clip-path="url(#tile)">
    <g transform="translate(64,70) scale(0.3125)">
      <rect width="512" height="512" fill="#0f172a"/>
      <g transform="translate(6,-8)">
        <g fill="none" stroke="#f8fafc" stroke-width="50">
          <path d="M206 145 H331"/>
          <path d="M306 145 V306 A76 76 0 0 1 154 306 V284"/>
        </g>
        <rect x="346" y="382" width="26" height="26" fill="#3b82f6"/>
      </g>
    </g>
  </g>
  <rect x="64" y="70" width="160" height="160" rx="22" fill="none" stroke="#1e293b" stroke-width="1.5"/>
  <g font-family="-apple-system, BlinkMacSystemFont, 'Segoe UI', 'Helvetica Neue', Helvetica, Arial, sans-serif">
    <text x="264" y="130" font-size="52" font-weight="700" letter-spacing="-0.8" fill="#e6edf3">Jashanpreet Singh</text>
    <text x="266" y="172" font-size="22" fill="#8b949e">Software Engineer <tspan fill="#6e7681">·</tspan> Backend Systems &amp; Applied AI</text>
    <rect x="266" y="196" width="36" height="3" rx="1.5" fill="#3b82f6"/>
    <text x="266" y="228" font-size="13" font-weight="600" letter-spacing="2.4" fill="#6e7681">JAVA   /   PYTHON   /   TYPESCRIPT   /   SPRING BOOT   /   FASTAPI</text>
  </g>
</svg>
